<?xml version="1.0" encoding="UTF-8"?>
<svg width="456" height="456" viewBox="0 0 456 456" xmlns="http://www.w3.org/2000/svg">
    <rect width="456" height="456" rx="100" fill="#6200EE"/>
    <path d="M 280 120 L 280 280 C 280 304 260 320 236 320 C 212 320 192 304 192 280 C 192 256 212 240 236 240 C 244 240 252 242 260 246 L 260 160 L 340 140 L 340 220 C 340 244 320 260 296 260 C 272 260 252 244 252 220 C 252 196 272 180 296 180 C 304 180 312 182 320 186 L 320 120 L 280 120 Z" fill="white"/>
</svg>
